<?xml version="1.0" encoding="UTF-8"?>
<!DOCTYPE svg PUBLIC "-//W3C//DTD SVG 1.1//EN" "http://www.w3.org/Graphics/SVG/1.1/DTD/svg11.dtd">
<svg xmlns="http://www.w3.org/2000/svg" version="1.1" width="500px" height="500px" style="shape-rendering:geometricPrecision; text-rendering:geometricPrecision; image-rendering:optimizeQuality; fill-rule:evenodd; clip-rule:evenodd" xmlns:xlink="http://www.w3.org/1999/xlink">
<g><path style="opacity:1" fill="#e3e1dc" d="M -0.5,-0.5 C 166.167,-0.5 332.833,-0.5 499.5,-0.5C 499.5,166.167 499.5,332.833 499.5,499.5C 332.833,499.5 166.167,499.5 -0.5,499.5C -0.5,332.833 -0.5,166.167 -0.5,-0.5 Z"/></g>
<g><path style="opacity:1" fill="#2d2d2d" d="M 376.5,273.5 C 376.816,269.475 376.983,265.475 377,261.5C 375.933,266.136 375.1,270.802 374.5,275.5C 373.157,280.078 370.157,281.578 365.5,280C 363.504,275.729 363.004,271.229 364,266.5C 364.409,262.703 365.242,259.036 366.5,255.5C 364.516,255.617 362.85,254.95 361.5,253.5C 360.525,261.483 359.692,269.483 359,277.5C 356.668,283.008 353.668,283.675 350,279.5C 349.123,269.85 348.623,260.183 348.5,250.5C 344.167,250.5 339.833,250.5 335.5,250.5C 335.684,258.875 335.184,267.208 334,275.5C 333.126,277.776 331.459,279.11 329,279.5C 326.719,278.224 324.719,276.557 323,274.5C 322.667,269.167 322.333,263.833 322,258.5C 316.827,275.173 305.661,281.673 288.5,278C 279.485,273.497 274.152,266.33 272.5,256.5C 272.665,252.818 272.499,249.152 272,245.5C 271.283,246.044 270.783,246.711 270.5,247.5C 268.133,248.079 266.3,249.412 265,251.5C 260.634,261.179 255.468,270.346 249.5,279C 244.184,280.684 241.184,278.85 240.5,273.5C 242.898,269.376 244.731,265.042 246,260.5C 244.748,262.001 243.748,263.668 243,265.5C 242.601,265.272 242.435,264.938 242.5,264.5C 244.51,257.312 247.677,250.645 252,244.5C 252.749,243.365 252.583,242.365 251.5,241.5C 244.5,237.333 237.5,233.167 230.5,229C 225.172,228.831 219.838,228.998 214.5,229.5C 214.667,245.17 214.5,260.837 214,276.5C 213.667,276.833 213.333,277.167 213,277.5C 212.333,273.5 211.667,273.5 211,277.5C 206.333,280.568 203.333,279.235 202,273.5C 201.5,259.504 201.333,245.504 201.5,231.5C 196.821,231.666 192.155,231.499 187.5,231C 186.584,230.626 185.75,230.126 185,229.5C 183.191,235.692 183.024,242.025 184.5,248.5C 183.006,252.075 180.839,252.409 178,249.5C 175.24,238.07 168.073,231.57 156.5,230C 166.163,238.321 174.33,247.821 181,258.5C 184.725,268.022 181.891,274.522 172.5,278C 167.833,278.667 163.167,278.667 158.5,278C 156.481,277.55 154.648,276.717 153,275.5C 149.448,282.249 146.448,281.916 144,274.5C 143.213,270.821 142.379,267.154 141.5,263.5C 135.787,277.706 126.12,281.872 112.5,276C 109.107,272.031 105.607,268.197 102,264.5C 99.8692,258.644 98.3692,252.644 97.5,246.5C 93.1161,246.174 88.7828,246.508 84.5,247.5C 91.4553,256.393 95.2886,266.393 96,277.5C 93.2053,278.783 90.3719,278.783 87.5,277.5C 83.5945,266.767 78.9278,256.434 73.5,246.5C 71.0521,245.527 68.3854,245.194 65.5,245.5C 66.1327,255.821 66.466,266.155 66.5,276.5C 65.8091,278.022 64.6424,279.022 63,279.5C 61.0561,278.561 59.3894,277.227 58,275.5C 56.9945,265.456 55.6612,255.456 54,245.5C 51.1271,243.294 48.6271,240.794 46.5,238C 47.2065,235.46 48.8732,234.293 51.5,234.5C 51.0484,231.124 50.3818,227.791 49.5,224.5C 50.1667,223.5 50.8333,222.5 51.5,221.5C 48.0476,216.527 49.2142,213.527 55,212.5C 70.8468,216.356 84.8468,223.689 97,234.5C 97.7678,227.558 100.268,221.391 104.5,216C 113.007,214.342 116.34,217.842 114.5,226.5C 113.175,225.047 112.342,225.381 112,227.5C 111.501,232.823 111.334,238.156 111.5,243.5C 112.06,245.801 112.56,248.134 113,250.5C 113.191,248.292 113.691,246.292 114.5,244.5C 115.369,250.644 116.869,256.644 119,262.5C 124.634,265.581 128.301,263.914 130,257.5C 131.05,245.189 131.717,232.856 132,220.5C 132.5,220 133,219.5 133.5,219C 136.486,217.443 139.486,215.776 142.5,214C 154.444,214.384 164.944,218.551 174,226.5C 173.865,223.062 175.032,220.228 177.5,218C 181.395,216.734 185.395,216.234 189.5,216.5C 192.64,217.641 195.973,217.808 199.5,217C 198.167,216.667 196.833,216.333 195.5,216C 200.351,215.826 205.018,215.326 209.5,214.5C 215.509,214.299 221.509,213.966 227.5,213.5C 230.059,213.198 232.393,213.532 234.5,214.5C 235.028,215.721 235.695,216.887 236.5,218C 244.446,221.306 252.112,225.139 259.5,229.5C 263.044,224.245 266.71,219.079 270.5,214C 271.483,213.409 272.15,213.743 272.5,215C 271.586,216.406 270.92,217.906 270.5,219.5C 272.67,218.162 274.336,216.328 275.5,214C 281.338,212.52 284.171,214.687 284,220.5C 282.329,223.494 280.996,226.494 280,229.5C 284.244,224.585 289.077,220.419 294.5,217C 298.192,214.841 301.692,215.007 305,217.5C 305.5,226.827 305.666,236.161 305.5,245.5C 305.5,248.833 305.5,252.167 305.5,255.5C 303.61,255.703 302.11,255.037 301,253.5C 300.833,253.833 300.667,254.167 300.5,254.5C 302.363,255.689 304.03,257.022 305.5,258.5C 301.534,259.577 299.034,257.91 298,253.5C 297.168,245.517 296.668,237.517 296.5,229.5C 297.314,231.631 297.814,233.964 298,236.5C 298.667,232.833 298.667,229.167 298,225.5C 297.005,226.066 296.172,226.733 295.5,227.5C 282.721,237.611 279.888,249.944 287,264.5C 294.518,271.235 301.852,270.901 309,263.5C 310.722,260.389 311.555,257.056 311.5,253.5C 310.945,249.772 310.445,246.105 310,242.5C 313.667,238.5 317.333,238.5 321,242.5C 321.333,234.833 321.667,227.167 322,219.5C 322.411,224.519 322.911,229.519 323.5,234.5C 323.192,236.924 323.526,239.257 324.5,241.5C 325.808,237.685 325.808,234.019 324.5,230.5C 324.393,225.79 324.226,221.123 324,216.5C 325.808,214.604 327.975,214.104 330.5,215C 331.304,216.771 332.471,218.271 334,219.5C 334.952,226.136 335.452,232.803 335.5,239.5C 340.167,239.167 344.833,238.833 349.5,238.5C 349.652,232.971 349.318,227.471 348.5,222C 348.333,217.5 350.5,215.333 355,215.5C 357.034,215.354 358.701,216.02 360,217.5C 361.26,224.394 361.926,231.394 362,238.5C 363.987,239.218 365.821,240.218 367.5,241.5C 368.086,241.291 368.586,240.957 369,240.5C 370.542,230.535 374.042,221.368 379.5,213C 381.365,211.699 383.365,211.365 385.5,212C 388.121,213.654 390.621,215.487 393,217.5C 395.104,223.352 396.437,231.352 397,241.5C 399.903,242.069 401.903,243.735 403,246.5C 403.064,250.044 402.231,253.377 400.5,256.5C 402.48,264.071 403.313,271.737 403,279.5C 400.368,282.192 398.034,281.859 396,278.5C 392.512,271.526 390.178,264.193 389,256.5C 386.281,255.556 383.448,255.223 380.5,255.5C 379.252,261.633 377.918,267.633 376.5,273.5 Z"/></g>
<g><path style="opacity:1" fill="#888784" d="M 227.5,213.5 C 230.024,212.2 232.691,212.2 235.5,213.5C 235.376,214.107 235.043,214.44 234.5,214.5C 232.393,213.532 230.059,213.198 227.5,213.5 Z"/></g>
<g><path style="opacity:1" fill="#2f2f2f" d="M 432.5,276.5 C 431.691,274.708 431.191,272.708 431,270.5C 430.71,272.92 430.21,275.254 429.5,277.5C 427.989,279.441 425.989,279.941 423.5,279C 421.959,277.421 420.792,275.587 420,273.5C 419.62,259.496 419.787,245.496 420.5,231.5C 411.559,233.352 404.059,231.019 398,224.5C 397.056,221.653 397.556,219.153 399.5,217C 402.482,216.502 405.482,216.335 408.5,216.5C 411.64,217.641 414.973,217.808 418.5,217C 416.833,216.667 415.167,216.333 413.5,216C 417.688,215.824 421.688,215.324 425.5,214.5C 434.195,214.143 442.862,213.476 451.5,212.5C 453.569,212.824 453.902,213.658 452.5,215C 453.804,215.804 454.471,216.971 454.5,218.5C 453.165,221.21 451.831,223.877 450.5,226.5C 445.024,228.394 439.357,229.394 433.5,229.5C 433.817,245.244 433.484,260.911 432.5,276.5 Z"/></g>
<g><path style="opacity:1" fill="#585857" d="M 209.5,214.5 C 205.018,215.326 200.351,215.826 195.5,216C 196.833,216.333 198.167,216.667 199.5,217C 195.973,217.808 192.64,217.641 189.5,216.5C 190.239,216.631 190.906,216.464 191.5,216C 189.167,215.667 186.833,215.333 184.5,215C 192.827,214.5 201.16,214.334 209.5,214.5 Z"/></g>
<g><path style="opacity:1" fill="#5c5b5a" d="M 425.5,214.5 C 421.688,215.324 417.688,215.824 413.5,216C 415.167,216.333 416.833,216.667 418.5,217C 414.973,217.808 411.64,217.641 408.5,216.5C 407.391,215.71 406.058,215.21 404.5,215C 411.492,214.5 418.492,214.334 425.5,214.5 Z"/></g>
<g><path style="opacity:1" fill="#abaaa6" d="M 270.5,219.5 C 268.272,223.612 265.772,227.612 263,231.5C 264.2,226.783 266.7,222.783 270.5,219.5 Z"/></g>
<g><path style="opacity:1" fill="#ceccc8" d="M 61.5,225.5 C 69.9107,227.372 77.5774,230.872 84.5,236C 82.5,236.667 80.5,236.667 78.5,236C 75.4497,234.802 72.4497,233.635 69.5,232.5C 67.9559,232.79 66.6226,233.456 65.5,234.5C 64.3129,231.387 62.9796,228.387 61.5,225.5 Z"/></g>
<g><path style="opacity:1" fill="#9b9a96" d="M 184.5,227.5 C 184.56,226.957 184.893,226.624 185.5,226.5C 187.444,227.189 189.444,227.689 191.5,228C 189.071,228.703 186.738,228.537 184.5,227.5 Z"/></g>
<g><path style="opacity:1" fill="#6b6a69" d="M 402.5,227.5 C 402.735,226.903 403.235,226.57 404,226.5C 407.251,227.068 410.417,227.902 413.5,229C 409.742,229.313 406.076,228.813 402.5,227.5 Z"/></g>
<g><path style="opacity:1" fill="#9e9d9a" d="M 296.5,229.5 C 296.672,228.508 296.338,227.842 295.5,227.5C 296.172,226.733 297.005,226.066 298,225.5C 298.667,229.167 298.667,232.833 298,236.5C 297.814,233.964 297.314,231.631 296.5,229.5 Z"/></g>
<g><path style="opacity:1" fill="#d2d0cc" d="M 383.5,229.5 C 384.895,233.591 385.562,237.924 385.5,242.5C 383.833,242.5 382.167,242.5 380.5,242.5C 381.032,238.039 382.032,233.706 383.5,229.5 Z"/></g>
<g><path style="opacity:1" fill="#a3a29e" d="M 114.5,226.5 C 114.5,231.5 114.5,236.5 114.5,241.5C 113.677,238.023 113.177,234.356 113,230.5C 112.825,235.019 112.325,239.353 111.5,243.5C 111.334,238.156 111.501,232.823 112,227.5C 112.342,225.381 113.175,225.047 114.5,226.5 Z"/></g>
<g><path style="opacity:1" fill="#dedcd7" d="M 144.5,231.5 C 155.798,240.96 165.465,251.793 173.5,264C 173.241,265.261 172.574,266.261 171.5,267C 162.074,269.536 155.574,266.369 152,257.5C 150.157,251.617 148.823,245.617 148,239.5C 146.555,236.91 145.388,234.243 144.5,231.5 Z"/></g>
<g><path style="opacity:1" fill="#878683" d="M 275.5,233.5 C 275.973,235.97 275.139,238.304 273,240.5C 273.22,238.037 274.054,235.704 275.5,233.5 Z"/></g>
<g><path style="opacity:1" fill="#686866" d="M 324.5,230.5 C 325.808,234.019 325.808,237.685 324.5,241.5C 323.526,239.257 323.192,236.924 323.5,234.5C 324.434,233.432 324.768,232.099 324.5,230.5 Z"/></g>
<g><path style="opacity:1" fill="#5f5f5d" d="M 114.5,241.5 C 114.5,242.5 114.5,243.5 114.5,244.5C 113.691,246.292 113.191,248.292 113,250.5C 112.56,248.134 112.06,245.801 111.5,243.5C 112.325,239.353 112.825,235.019 113,230.5C 113.177,234.356 113.677,238.023 114.5,241.5 Z"/></g>
<g><path style="opacity:1" fill="#a9a7a4" d="M 73.5,246.5 C 71.5,246.5 69.5,246.5 67.5,246.5C 67.6287,248.216 67.962,249.883 68.5,251.5C 67.4026,256.013 67.4026,260.679 68.5,265.5C 67.8333,269.167 67.1667,272.833 66.5,276.5C 66.466,266.155 66.1327,255.821 65.5,245.5C 68.3854,245.194 71.0521,245.527 73.5,246.5 Z"/></g>
<g><path style="opacity:1" fill="#686766" d="M 272.5,256.5 C 271.833,253.5 271.167,250.5 270.5,247.5C 270.783,246.711 271.283,246.044 272,245.5C 272.499,249.152 272.665,252.818 272.5,256.5 Z"/></g>
<g><path style="opacity:1" fill="#8f8f8c" d="M 305.5,245.5 C 306.833,249.833 306.833,254.167 305.5,258.5C 304.03,257.022 302.363,255.689 300.5,254.5C 300.667,254.167 300.833,253.833 301,253.5C 302.11,255.037 303.61,255.703 305.5,255.5C 305.5,252.167 305.5,248.833 305.5,245.5 Z"/></g>
<g><path style="opacity:1" fill="#656463" d="M 68.5,251.5 C 69.8488,258.224 69.8488,262.891 68.5,265.5C 67.4026,260.679 67.4026,256.013 68.5,251.5 Z"/></g>
<g><path style="opacity:1" fill="#7b7a78" d="M 240.5,273.5 C 239.121,270.018 239.788,267.018 242.5,264.5C 242.435,264.938 242.601,265.272 243,265.5C 243.748,263.668 244.748,262.001 246,260.5C 244.731,265.042 242.898,269.376 240.5,273.5 Z"/></g>
<g><path style="opacity:1" fill="#a8a6a3" d="M 376.5,273.5 C 375.833,274.167 375.167,274.833 374.5,275.5C 375.1,270.802 375.933,266.136 377,261.5C 376.983,265.475 376.816,269.475 376.5,273.5 Z"/></g>
<g><path style="opacity:1" fill="#969592" d="M 432.5,276.5 C 431.791,277.404 430.791,277.737 429.5,277.5C 430.21,275.254 430.71,272.92 431,270.5C 431.191,272.708 431.691,274.708 432.5,276.5 Z"/></g>
</svg>
